<svg height="1200" viewBox="0 0 1700 1200" width="1700" xmlns="http://www.w3.org/2000/svg"><g fill="none" fill-rule="evenodd"><g transform="translate(261 -37)"><g fill-rule="nonzero" transform="matrix(.96592583 -.25881905 -.25881905 -.96592583 133.128208 732.548802)"><circle cx="345.971858" cy="371.504477" fill="#e1e5f0" r="77"/><path d="m79.0302131 286.592683 112.1572429-286.0000002 93.842757 36.1767255-53.144786 225.0632037zm-78.86883409 225.481166 52.92984439-152 88.0701556 132.250395zm70.47802599-173.465079 147-31.754808v181h-47.315863zm182.69636-75.629969 67-210.9999999 65.939094 26.6266414-45.008818 166.8558955zm135.496541-24.316875 38.335121-151.6911548 92.467039 37.2046268 8.929028 95.974305zm152.919418-171.5215026 94.589045-21.7680982 18.634193 59.2203928-112.832228 19.880542zm117.198382-25.9113953 82.229456-27.5251329 24.117026 57.1871272-90.771844 28.4633469zm-114.66466 101.5209149 128.223663-20.396362 112.807011-38.5679012 50.969326 79.6848492-281.385237 52.703581zm-103.761076 143.831582 103-23.203006v83.61458l-88.177166 13.38542zm22.292143 95.422599 80.144914-11.433045 20.544237 65.468225-105 12.257325zm118.066178-118.963089 123.375598-18.129041 29.624402 177.932583-121.477266 12.067417zm144.913245-19.472045 136.832329-26.762448 52.272962 112.725269-155.560407 89.140876zm-379.26156 191.287211c-34.793939 0-63-28.206061-63-63s28.206061-63 63-63c34.79394 0 63 28.206061 63 63s-28.20606 63-63 63zm423.17337-425.81796859 109.671551 1.54514629c3.047367.0429339 5.716754 2.0526079 6.600576 4.9693092 1.121136 3.6998592-.969332 7.6080479-4.669192 8.7291838l-96.517293 29.2467902z" fill="#f2f6fb"/></g><path d="m494.661195 514.294306c2.046598 3.601211.786336 8.179665-2.814876 10.226264-3.601211 2.046598-8.179665.786336-10.226264-2.814876l-13.340499-23.474051c-2.046599-3.601211-.786336-8.179665 2.814875-10.226264 3.601211-2.046598 8.179666-.786336 10.226264 2.814876zm-26.681-46.948102c2.046599 3.601211.786336 8.179665-2.814875 10.226264-3.601211 2.046598-8.179666.786336-10.226264-2.814876l-13.3405-23.474051c-2.046598-3.601211-.786336-8.179665 2.814876-10.226264 3.601211-2.046598 8.179665-.786335 10.226264 2.814876zm-26.774075-46.94442c2.067223 3.589412.833246 8.17502-2.756166 10.242243-3.589412 2.067224-8.17502.833246-10.242243-2.756166l-13.47494-23.397136c-2.067223-3.589412-.833245-8.175021 2.756166-10.242244 3.589412-2.067223 8.17502-.833245 10.242244 2.756166zm-31.101355-34.764265c-4.121729.410664-7.795958-2.597749-8.206621-6.719477-.410664-4.121728 2.597748-7.795957 6.719477-8.206621l26.866976-2.676859c4.121728-.410663 7.795958 2.597749 8.206621 6.719477.410664 4.121728-2.597749 7.795958-6.719477 8.206621zm53.733953-5.353718c-4.121729.410663-7.795958-2.597749-8.206621-6.719477-.410664-4.121728 2.597748-7.795958 6.719477-8.206621l26.866976-2.676859c4.121728-.410664 7.795958 2.597749 8.206621 6.719477.410664 4.121728-2.597749 7.795957-6.719477 8.206621zm53.733952-5.353718c-4.121728.410663-7.795957-2.597749-8.206621-6.719477-.410663-4.121729 2.597749-7.795958 6.719478-8.206621l26.866976-2.67686c4.121728-.410663 7.795958 2.597749 8.206621 6.719477.410663 4.121729-2.597749 7.795958-6.719477 8.206621zm53.733953-5.353719c-4.121728.410664-7.795957-2.597749-8.206621-6.719477-.410663-4.121728 2.597749-7.795957 6.719477-8.206621l26.866977-2.676859c4.121728-.410663 7.795957 2.597749 8.206621 6.719477.410663 4.121728-2.597749 7.795958-6.719477 8.206621zm53.733953-5.353718c-4.121728.410663-7.795957-2.597749-8.206621-6.719477-.410663-4.121728 2.597749-7.795958 6.719477-8.206621l26.866977-2.676859c4.121728-.410664 7.795957 2.597749 8.206621 6.719477.410663 4.121728-2.597749 7.795957-6.719477 8.206621zm53.733953-5.353718c-4.121728.410663-7.795957-2.597749-8.206621-6.719477-.410663-4.121729 2.597749-7.795958 6.719477-8.206621l26.866977-2.67686c4.121728-.410663 7.795957 2.597749 8.206621 6.719478.410663 4.121728-2.597749 7.795957-6.719477 8.206621zm53.733953-5.353719c-4.121728.410664-7.795957-2.597748-8.206621-6.719477-.410663-4.121728 2.597749-7.795957 6.719477-8.206621l26.866977-2.676859c4.121728-.410663 7.795957 2.597749 8.206621 6.719477.410663 4.121728-2.597749 7.795958-6.719477 8.206621zm53.588224-4.841845c-4.130788.306402-7.727841-2.793874-8.034243-6.924662-.306403-4.130787 2.793874-7.72784 6.924661-8.034243l26.926028-1.997247c4.130788-.306403 7.727841 2.793874 8.034244 6.924661.306402 4.130788-2.793874 7.727841-6.924662 8.034244zm53.852057-3.994495c-4.130788.306403-7.727841-2.793874-8.034244-6.924661-.306402-4.130788 2.793874-7.727841 6.924662-8.034243l26.926028-1.997248c4.130788-.306402 7.727841 2.793874 8.034243 6.924662.306403 4.130787-2.793874 7.72784-6.924661 8.034243zm53.852056-3.994494c-4.130787.306402-7.72784-2.793874-8.034243-6.924662-.306403-4.130787 2.793874-7.72784 6.924661-8.034243l8.273503-.61369.180259-.01119 18.680432-.934022c4.136968-.206848 7.658326 2.979143 7.865175 7.116111.206848 4.136967-2.979143 7.658326-7.116111 7.865174l-18.680432.934022.180259-.01119zm41.355837-31.133831c-.745193 4.074552-4.652369 6.773531-8.726921 6.028337-4.074552-.745193-6.773531-4.652368-6.028337-8.72692l4.85745-26.559465c.745193-4.074552 4.652369-6.773531 8.726921-6.028338 4.074552.745194 6.773531 4.652369 6.028337 8.726921zm9.714901-53.11893c-.745194 4.074552-4.652369 6.773531-8.726921 6.028338-4.074552-.745194-6.773531-4.652369-6.028338-8.726921l4.857451-26.559465c.745193-4.074552 4.652368-6.773531 8.726921-6.028338 4.074552.745194 6.77353 4.652369 6.028337 8.726921zm-462.871557 322.568386c-11.59798 0-21-9.40202-21-21s9.40202-21 21-21 21 9.40202 21 21-9.40202 21-21 21zm449-374c-11.59798 0-21-9.40202-21-21s9.40202-21 21-21 21 9.40202 21 21-9.40202 21-21 21z" fill="#d8deed" fill-rule="nonzero"/><g transform="translate(319 134)"><path d="m60.3716977 158.610973c31.0855349-52.146971 46.6283023-87.3365877 46.6283023-105.5688513 0-29.2943549-23.9527659-53.0421217-53.5-53.0421217s-53.5 23.7477668-53.5 53.0421217c0 18.2322633 15.542767 53.4218793 46.628301 105.5688493l-.0000037.000002c2.2623329 3.795135 7.1728811 5.037717 10.9680163 2.775384 1.1412403-.680309 2.0950748-1.634144 2.7753841-2.775384z" fill="#474bff" fill-rule="nonzero"/><ellipse cx="54" cy="58.5" fill="#fff" rx="31" ry="31.5"/></g></g><g transform="translate(1128 113)"><path d="m0 8.00790385c0-4.42264318 3.58983883-8.00790385 8.00351195-8.00790385h216.99297605c4.420218 0 8.003512 3.58218913 8.003512 8.00790385v332.98419215c0 4.422643-3.589839 8.007904-8.003512 8.007904h-216.99297605c-4.42021759 0-8.00351195-3.582189-8.00351195-8.007904z" fill="#e1e5f0" fill-rule="nonzero"/><path d="m117.642157 333.03268c-6.938754 0-12.563726-5.616925-12.563726-12.545752s5.624972-12.545752 12.563726-12.545752 12.563725 5.616925 12.563725 12.545752-5.624971 12.545752-12.563725 12.545752zm-2.284314-305.660131c-1.892387 0-3.42647-1.5318884-3.42647-3.4215686s1.534083-3.4215686 3.42647-3.4215686c1.892388 0 3.426471 1.5318884 3.426471 3.4215686s-1.534083 3.4215686-3.426471 3.4215686zm-104.357843 13.6282319c0-1.1050008.8913017-2.0007809 1.9959214-2.0007809h206.1650196c1.102317 0 1.995922.8890162 1.995922 2.0007809v164.9984381c0 1.105001-.891302 2.000781-1.995922 2.000781h-206.1650196c-1.1023169 0-1.9959214-.889016-1.9959214-2.000781z" fill="#f2f6fb" fill-rule="nonzero"/><path d="m11.4215686 209.782618c0-1.107242.8913017-2.00484 1.9959215-2.00484h206.1650199c1.102317 0 1.995921.895303 1.995921 2.00484v84.990319c0 1.107243-.891301 2.004841-1.995921 2.004841h-206.1650199c-1.102317 0-1.9959215-.895303-1.9959215-2.004841zm33.5784314-149.782618h144c7.731986 0 14 6.2680135 14 14s-6.268014 14-14 14h-144c-7.7319865 0-14-6.2680135-14-14s6.2680135-14 14-14z" fill="#fff"/><g fill-rule="nonzero"><path d="m179 207.335937v-17h4.024052c3.017183 0 6.975948-3.780117 6.975948-7.989334 0-4.209216-2.462223-4.423344-4.608023-12.337649-1.13552-4.188108-4.599512-6.057311-10.391977-5.607609-5.792465-.449702-9.256457 1.419501-10.391977 5.607609-2.1458 7.914305-4.608023 8.128433-4.608023 12.337649 0 4.209217 3.958765 7.989334 6.975948 7.989334h13.010315-9.972526 2.986263v17h-66l7.154725-50.130325c.562564-3.941661 3.938142-6.869675 7.919746-6.869675h61.694133c4.214997 0 7.70695 3.2704 7.982844 7.476358l3.248552 49.523642zm-132 0 4.9679893-80.826728c.259364-4.219725 3.7572428-7.509209 7.984931-7.509209h31.5488922c4.365738 0 7.9253214 3.500117 7.9988648 7.865235l1.3557677 80.470702zm40-71c-1.1045695 0-2 .895431-2 2v10c0 1.10457.8954305 2 2 2h5c1.1045695 0 2-.89543 2-2v-10c0-1.104569-.8954305-2-2-2zm-17 0c-1.1045695 0-2 .895431-2 2v10c0 1.10457.8954305 2 2 2h5c1.1045695 0 2-.89543 2-2v-10c0-1.104569-.8954305-2-2-2zm17 23c-1.1045695 0-2 .895431-2 2v10c0 1.10457.8954305 2 2 2h5c1.1045695 0 2-.89543 2-2v-10c0-1.104569-.8954305-2-2-2zm-17 0c-1.1045695 0-2 .895431-2 2v10c0 1.10457.8954305 2 2 2h5c1.1045695 0 2-.89543 2-2v-10c0-1.104569-.8954305-2-2-2zm17 23c-1.1045695 0-2 .895431-2 2v10c0 1.10457.8954305 2 2 2h5c1.1045695 0 2-.89543 2-2v-10c0-1.104569-.8954305-2-2-2zm-17 0c-1.1045695 0-2 .895431-2 2v10c0 1.10457.8954305 2 2 2h5c1.1045695 0 2-.89543 2-2v-10c0-1.104569-.8954305-2-2-2zm71-23c-1.104569 0-2 .895431-2 2v10c0 1.10457.895431 2 2 2h5c1.104569 0 2-.89543 2-2v-10c0-1.104569-.895431-2-2-2zm-17 0c-1.104569 0-2 .895431-2 2v10c0 1.10457.895431 2 2 2h5c1.104569 0 2-.89543 2-2v-10c0-1.104569-.895431-2-2-2zm17 23c-1.104569 0-2 .895431-2 2v10c0 1.10457.895431 2 2 2h5c1.104569 0 2-.89543 2-2v-10c0-1.104569-.895431-2-2-2zm-17 0c-1.104569 0-2 .895431-2 2v10c0 1.10457.895431 2 2 2h5c1.104569 0 2-.89543 2-2v-10c0-1.104569-.895431-2-2-2z" fill="#a339ff"/><path d="m45 236h139c2.761424 0 5 2.238576 5 5s-2.238576 5-5 5h-139c-2.7614237 0-5-2.238576-5-5s2.2385763-5 5-5zm0 20h139c2.761424 0 5 2.238576 5 5s-2.238576 5-5 5h-139c-2.7614237 0-5-2.238576-5-5s2.2385763-5 5-5zm-3-189h17v3h-17zm0 6h17v3h-17zm0 6h17v3h-17zm143.271596-3.6562834 5.728404 5.8132443-1.94749 1.8430391-5.708166-5.7927063c-1.229165.8153458-2.730704 1.2927063-4.344344 1.2927063-4.114403 0-7.5-3.1034638-7.5-7s3.385597-7 7.5-7 7.5 3.1034638 7.5 7c0 1.4249677-.452781 2.743872-1.228404 3.8437166zm-6.271596.1562834c2.513014 0 4.5-1.821404 4.5-4s-1.986986-4-4.5-4-4.5 1.821404-4.5 4 1.986986 4 4.5 4z" fill="#e1e5f0"/></g></g><g fill-rule="nonzero"><g transform="translate(632 610)"><path d="m450.776283 393.623561c-2.760221-.081465-4.931783-2.385108-4.850318-5.14533.081465-2.760221 2.385108-4.931783 5.14533-4.850318l93.204538 2.750838c2.760222.081465 4.931783 2.385107 4.850318 5.145329s-2.385107 4.931783-5.145329 4.850318zm-139.272062-82.572869c-1.786878-2.105358-1.528699-5.260638.576658-7.047515 2.105358-1.786878 5.260638-1.528699 7.047515.576658l56.864841 67c1.786878 2.105357 1.528699 5.260637-.576658 7.047515-2.105357 1.786877-5.260637 1.528699-7.047515-.576658zm-59.223152-144.006656-31.881962 74.226819c54.026262 24.518357 91.600893 78.935738 91.600893 142.129145 0 86.156421-69.843579 156-156 156s-156-69.843579-156-156 69.843579-156 156-156c19.421222 0 38.013534 3.548986 55.163781 10.033804l56.442074-131.407085c1.089813-2.537276 4.03015-3.710676 6.567426-2.620864 2.537276 1.089813 3.710676 4.03015 2.620864 6.567426l-18.953281 44.126572h355.49156l-35.776968-72.5394099c-1.728143.1583572-3.48171.2395569-5.255456.2395569-2.761424 0-5-2.2385763-5-5s2.238576-5 5-5c.14705 0 .2939-.0006694.440545-.0020044l-12.224799-24.7863289c-1.221469-2.4765849-.203998-5.4744505 2.272587-6.6959203s5.474451-.203998 6.695921 2.2725869l13.774108 27.9276227c15.973385-3.8411418 27.541638-15.8337478 27.541638-29.615956 0-16.7127087-17.182689-30.9-38.5-30.9h-92.9c-2.761424 0-5-2.23857625-5-5s2.238576-5 5-5h92.9c26.462343 0 48.5 18.1959099 48.5 40.9 0 18.1390362-13.957033 33.3313481-33.030542 38.7624057l79.729344 161.6548253c19.658375-8.938558 41.498371-13.917231 64.501198-13.917231 86.156421 0 156 69.843579 156 156s-69.843579 156-156 156-156-69.843579-156-156c0-59.594191 33.416353-111.383575 82.533613-137.652706l-38.866119-78.802803-183.11729 203.500003c-2.009118 2.232751-5.519433 2.20277-7.49012-.063974zm419.644494 83.248652 64.558691 130.895645c1.221469 2.476585.203998 5.474451-2.272587 6.695921-2.476585 1.221469-5.474451.203998-6.695921-2.272587l-64.555376-130.888926c-45.814232 24.632487-76.96037 73.017588-76.96037 128.677259 0 80.633573 65.366427 146 146 146s146-65.366427 146-146-65.366427-146-146-146c-21.414434 0-41.752058 4.610374-60.074437 12.892688zm-408.953197-86.192688 169.925525 195.453397 175.876638-195.453397zm-46.521657 86.36342-55.856564 130.043914c-1.089813 2.537276-4.03015 3.710676-6.567426 2.620864-2.537276-1.089813-3.710676-4.03015-2.620864-6.567426l55.80617-129.926586c-15.935472-5.969747-33.192523-9.234186-51.212025-9.234186-80.6335735 0-146 65.366427-146 146s65.3664265 146 146 146c80.633573 0 146-65.366427 146-146 0-59.072438-35.082677-109.950879-85.549291-132.93658z" fill="#d8deed"/><path d="m731.5 413.8c-16.844685 0-30.5-13.431458-30.5-30s13.655315-30 30.5-30 30.5 13.431458 30.5 30-13.655315 30-30.5 30zm-575.5.6c-17.120827 0-31-13.879173-31-31s13.879173-31 31-31 31 13.879173 31 31-13.879173 31-31 31zm272 3.4c-28.166522 0-51-22.833478-51-51s22.833478-51 51-51 51 22.833478 51 51-22.833478 51-51 51zm-177.5-320h85c11.874122 0 21.5 9.625878 21.5 21.5s-9.625878 21.5-21.5 21.5h-85c-11.874122 0-21.5-9.625878-21.5-21.5s9.625878-21.5 21.5-21.5z" fill="#e1e5f0"/></g><g transform="translate(873 600)"><path d="m234.968137 394.386936c1.006675-2.869607 1.779347-5.864603 2.292687-8.957479l77.869877 2.118335c2.093489.019671 3.792862 1.955633 3.778148 4.357661l.019042.599635c-.108771 2.305578-1.872483 4.074342-3.965972 4.054672zm-95.723529-7.913101-81.2000003-94.2c-1.5-1.7-1.4-4.4.4-5.9l.4-.4c1.1-.9 2.5-1.2 3.9-.8.8.1 1.4.6 2 1.2l79.9231903 92.204966 53.57681 11.895034c2.3.5 3.6 2.7 3.3 4.9l-.1.6c-.6 2.2-2.8 3.6-5 3.2z" fill="#de3190"/><path d="m316.865514 388.039401c-.5197-.308995-1.109685-.485735-1.734813-.491609l-77.776681-2.115799c-.223376 1.456762-.503064 2.892566-.836524 4.304624l-.119343-.005577c1.045725-4.069444 1.601847-8.335298 1.601847-12.73104 0-11.92526-4.092996-22.894549-10.95082-31.579701l12.776037-14.220326c4.04767 4.160659 38.492883 24.343635 56.110399 33.134147 4.784386 2.33445 9.379363 4.975696 13.881381 7.820311 2.17201 2.025432 6.016334 6.093745 7.186732 10.955861.227798.792532.155779 1.595535.280147 2.291619-.015379.941653-.172491 1.824239-.418362 2.63749zm-253.9404979-102.83568 46.1195919-42.441951 50 56.7.6 6.2 1.5 15.9c-.2 5.8-.1 11.5.7 17.3.4 2.6.8 5 1.3 7.1.418741 1.714843.885194 3.310405 1.396189 4.874689 4.88984 3.220179 10.495276 6.554947 18.803811 13.025311 4.3 3.2 8.2 6.7 12.1 10.4 1.8 2.4 4.7 7.2 4.9 12.1 0 .8-.1 1.6-.2 2.3-.169899.807017-.439022 1.550891-.770972 2.230664-.342453-.18694-.719921-.329662-1.129028-.418599l-53.57681-11.895034-79.9231903-92.204966c-.5540402-.55404-1.1080805-1.022813-1.8195916-1.170114zm148.7223529 46.917129 14.410736-.550293-5.862687 6.507568c-1.333615-1.14015-2.662162-2.174109-3.985642-3.101879s-2.844282-1.879569-4.562407-2.855396z" fill="#474961"/><path d="m258.496206 174.000215h25.36415c-.264904 3.779907-.567351 7.76909-.864002 12.090384-1.223104 16.269688 4.499287 44.057876 10.793233 70.132575l-67.803849 75.35106-14.659649.590136c-7.230241-3.93115-15.517367-6.16437-24.326089-6.16437-5.362351 0-10.531407.827592-15.386412 2.362017-1.209623-1.856613-1.876524-4.093179-1.764511-6.476043l.887493-18.602579c-2.499564-.392417-5.220383-1.6184-7.845582-3.05891-28.999812-12.106791-50.322812-22.710682-63.9689999-31.811671-9.8851426-6.592653-23.8591386-19.529225-41.9219881-38.809718-5.5398774-7.280933-7.1611907-12.816596-4.8639398-16.606989l109.8177238-85.332567c-34.926507 1.130197-62.4905317 1.279955-82.6920736.449274-41.4662109-1.705078-64.8707227-14.4-76.17072269-44.5000001-5.7-15.2-2.04677891-29.9201909-.6-36.6 9.39999999-43.39999997 59.14006189-46.69853939 67.95539229-46.99926968 5.876887-.20048686 33.134057 1.82479054 81.771509 6.07583221 78.40301 6.56801527 121.126074 11.14223407 128.169192 13.72265627 3.368882 1.2342738 7.651461 3.3444023 8.34375 4.2470703 37.858399 21.4867646 18.284766 61.6537109 16.384766 64.5537109l-.534837.1969665c-4.005095 11.3625366-10.180797 23.9395166-15.907936 34.5698426-1.950925 14.302511-3.295749 27.320855-4.178685 40.620446h-19.979752c-1.957725 3.231826-3.965945 6.571618-6.018181 10.000146zm38.183875 93.960663c6.13984 24.52596 11.903737 45.534711 11.448289 50.895634-.3987 5.807843-5.421132 10.29618-11.223739 10.197434l-5.902592-.097-51.058134 2.055389z" fill="#3abf7c"/><path d="m258.618159 173.796496h25.40529c-.264904 3.779906-.567351 7.769089-.864002 12.090383-1.223103 16.269688 4.499287 44.057876 10.793233 70.132575l-67.803849 75.35106-14.659649.590137c-7.230241-3.931151-15.517367-6.164371-24.326089-6.164371-5.362351 0-10.531407.827592-15.386412 2.362017-1.209623-1.856613-1.876524-4.093179-1.76451-6.476043l.87668-18.375949c2.870587.412929 5.438652-.298346 7.218934-3.08182 6.783148-10.617386 12.257465-15.843301 22.783203-31.811671 19.78354-30.132104 40.342043-65.577334 57.727171-94.616318zm30.235926-50.753692c-1.960748 14.35487-3.311179 27.412711-4.196853 40.753545h-20.019419c3.582707-5.912456 6.995481-11.461191 10.198487-16.527971 1.678562-2.693516 7.583347-12.255847 14.017784-24.225572zm7.989089 144.714354c6.13984 24.52596 11.903737 45.534711 11.448289 50.895634-.398699 5.807843-5.421132 10.29618-11.223739 10.197435l-5.902592-.097001-51.058134 2.05539z" fill="#444" opacity=".176986"/><path d="m165.564361 128.685557 21.060547-26.439453c.688204-.863973.545715-2.122261-.318257-2.8104651-.863973-.688204-2.122261-.5457154-2.810465.3182574l-21.060547 26.4394527c-.688204.863973-.545715 2.122261.318257 2.810465.863973.688204 2.122261.545716 2.810465-.318257z" fill="#482d1f"/></g><g transform="matrix(.9961947 .08715574 -.08715574 .9961947 907.701124 327.633876)"><path d="m177.989149 147.619398c13.466123 14.544835 7.044922 33.110586 2.207984 42.627879 1.214792.056806 2.306947.906284 2.599931 2.132785l.293891 1.230296c.466983 1.546585-.478137 3.170392-2.016007 3.537755l-8.667138 2.283074-2.694488 18.95973-.186775.987479-6.921747 49.284272-1.343508 9.61951c-.069724.796956-.317509.489382-.486853 1.277622-.178059.88786-118.6988107 16.301557-119.8282679 14.295485.0087156-.099619-.0909039-.108335-.0821883-.207954-.4370883-.740915-.8654611-1.581448-1.2938338-2.421982-4.5128614-9.228439-6.5863102-19.94995-5.0298802-30.855798l9.1221654-64.475728-26.4580864-9.11025c-2.6109774-.899032-3.9987837-3.744456-3.0997521-6.355434.8990317-2.610977 3.7444562-3.998784 6.3554337-3.099752l.1432364.04932c-3.2099157-11.071036-6.2373428-32.726596 14.1092446-44.001758 7.6291922-12.567355 15.1582483-22.449501 27.6357706-28.897181 11.3750971-5.7677739 23.074824-6.3156436 32.3397659-5.3036494 5.01198-.7915413 10.2218071-.8654027 15.5001131-.126294l22.799175 3.2996354c24.289596 3.299452 42.221874 22.375757 45.001814 45.270938z" fill="#de3190"/><path d="m177.685025 147.258314c6.326384 6.594139 8.468267 14.015486 8.457128 21.038972-.013865 8.742075-3.363316 16.867759-6.130955 22.014691 1.273396-.085629 2.405346.628968 2.714729 1.924118l.365491 1.713332c.466983 1.546585-.635928 2.908658-2.173798 3.276021-3.731995.852064-6.676504 1.539699-8.833526 2.062905l5.164821-36.342195.256499-1.784435c.694489-4.722191.731844-9.387271.179611-13.903409z" fill="#444" opacity=".176986"/><path d="m133.219418 86.1967933-3.084729 18.1095747c-.424358 2.491285-2.64095 4.274253-5.165295 4.154822-5.695776-.269469-9.67433-.711323-11.935662-1.325564-4.483472-1.217835-7.966721-2.752224-10.449748-4.603167-1.209824-.901849-1.809165-2.407784-1.549881-3.8943163l3.748318-21.4900924 1.509875-8.8526989 1.139004-8.73788c-.835386-.4814297-1.680907-1.0775914-2.482553-1.8118959-3.393248-3.2164986-5.6595737-17.2724625-4.319633-22.6095553 1.366087-5.0382344 21.062162.5664672 20.852988-1.8244001-.139449-1.5939115-.783559-10.1034885-1.932328-25.52873098-.13945-1.59391152 1.042301-3.00226709 2.636213-3.14171628 3.5863-.31376068 6.947216-.90894861 10.654315-2.13671566.398478-.0348623.788241-.16934406 1.186718-.20420636 3.343485-.79442688 22.123019-4.14391698 33.686193 8.69715018 1.100782 1.1082778 2.01104 2.3336064 2.938729 3.7581738 2.197815 3.3210855 3.443014 7.2274242 3.592398 11.2296341l.862751 17.8928941c.057261 1.8018661.014902 3.6124477-.127076 5.4317448-2.257875 22.381957-10.578766 38.568766-18.885792 39.9982106-.987479.1867752-6.349499.8566551-12.773691-.2877947-.515528-.155661-.090904.1083351-8.746553-2.4469992-.464498-.1274567-.915902-.2529574-1.354561-.3764712zm34.444143 145.3360627 1.730913-12.324465.186776-.987479 2.698739-18.989642 6.86851-1.610137 9.242232 30.271855c25.68563 6.952819 45.20688 12.372503 58.56375 16.259051 6.028709 1.754218 9.809304 3.24784 11.341783 4.480867 9.382495 1.493268 19.774432 4.53134 31.17581 9.114216.663797.266818 1.134521.867878 1.234472 1.576276.15432 1.093735-.607227 2.105484-1.700963 2.259805l-42.357994 5.976473-85.967095 12.486159c-57.054672 7.998101-93.6337849 12.945359-109.7373382 14.841775-4.3427499 1.149141-19.1867888 2.978788-35.078054-3.279622-1.9973222-.786599-5.91915248-3.280351-9.49321358-6.558204-2.38270741-2.185235-4.25118941-7.061308-5.605446-14.62822-2.07270321-12.279817 5.83137053-32.316174 19.31744048-66.066076 2.1120994-5.237503 4.1651312-10.244632 6.157183-15.005261l72.9561701 25.120824c-1.930798 3.903948-3.7767451 7.625937-5.4008263 10.86975 19.9805385 1.481608 48.7859325 3.507679 73.8671515 6.192055z" fill="#f2a98a"/><g fill="#482d1f"><path d="m175.107488 45.2968092c.871107 2.4226675 1.67596 4.4275811 2.74624 6.5320407 1.26127 2.6 3.294851 7.1338738 6.100742 13.6016213 1.887464 4.431674 2.320681 7.5141776 1.299653 9.2475109-1.081089 1.9-16.965497 5.5149829-18.455907 5.5435798-.270542.0051909-.53947.0111552-.806767.0178608 4.251153-7.1392641 7.644238-18.1082236 8.964446-31.1952346.097805-1.2532623.148336-2.5023886.151593-3.7473789zm2.624935-6.8539682c-1.947233.6068657-5.108797 1.1402612-7.778177.6164177-4.632141-1.0214048-.407661-3.8786354 3.690785-4.1082977 1.999496-.1096048 3.585355.6286722 4.564047 1.3302141.769336.6229954.496961 1.8582331-.476655 2.1616659zm-21.609055 1.2447404c-1.947233.6068657-5.098344 1.2397133-7.977081.6373233-4.621688-.9219525-.407661-3.8786354 3.690784-4.1082977 2.098949-.1200576 3.684808.6182194 4.6635 1.3197613.868788.6125426.596413 1.8477803-.377203 2.1512131zm-41.598568 23.5654624 3.257429 17.8530275c-.084121.0041145-.168138.0081193-.252052.0120148.004022.0204091.00608.0308048.00608.0308048s-.015728-.0097537-.046486-.028937c-20.2573345.9323249-34.4637595-4.4984788-44.1102251-7.7232307-1.6815147-.5590246-3.6523767-1.4283362-4.8852757-3.3725482-1.7081648-2.6612352-.993362-5.9382852-.0542514-9.9079289.5834543-2.3810883 1.6050542-5.8475466 3.7399439-9.6753719 2.0450564-3.4920003 4.72515-8.6883816 8.153004-15.7117237-.2774958-5.4357038.4771298-12.4592829 4.850139-18.7230924 2.5926351-3.6398136 5.7231972-5.720578 7.0568608-6.53993234 7.3307918-4.55625854 13.3739365-3.17770749 28.4812335-4.90095266 3.079488-.36980227 15.877473-2.73767392 16.275951-2.77253622 3.343484-.79442688 19.794183-3.19049913 30.716062 9.20476412.565833.6155428 1.138357 1.2755162 1.71757 1.97992-2.90528 1.910176-5.23997 3.1097366-7.004068 3.5986818-7.340727 2.1479601-13.920579 1.5190388-18.009945.6722281-.88664 2.4867386-2.245231 5.3159135-4.110635 8.0890468-5.083449 8.0672446-11.777543 12.5656498-16.211814 14.9395039-1.31088-1.1250345-3.552849-2.956796-5.809549-4.3749846-.316289-.1730922-2.530316-1.3847377-5.237473-1.3486562-4.816597.0198697-9.457663 4.3408078-10.82375 9.3790421-1.448276 5.2461889.616277 10.4861911 3.90119 13.6117858 2.915298 2.7739055 6.522069 3.5107378 8.150706 3.7772298.07791.6345287.161431 1.2800943.249355 1.9318453z"/><path d="m169.276392 45.6156492c.073471-1.214332.963464-2.3133823 2.167343-2.3393643.795618-.0836228 1.533594.2410161 1.978291 1.6019882 1.130108 3.0988473-1.461626 8.0971384-3.042108 6.4533389-1.030956-1.1988029-1.224184-3.993917-1.103526-5.7159628zm-16.101831.9698209c.07347-1.214332.963463-2.3133823 2.167343-2.3393643.795617-.0836228 1.533594.2410161 1.97829 1.6019882 1.130109 3.0988473-1.461625 8.0971384-3.042107 6.4533389-1.130409-1.18835-1.224184-3.993917-1.103526-5.7159628z"/><path d="m161.596408 66.6499953c-.7-.2-2.4-.7-2.7-1.9 0-.2-.1-.5 0-.7.4-.7 1.7-.3 3.5-.1 3.2.2 5.8 0 5.8 0s-.8 2-1.3 2.6c-1 1.5-4.2.4-5.3.1z" transform="matrix(.9945219 -.10452846 .10452846 .9945219 -5.94946 17.451677)"/><path d="m165.233647 57.3447564c-.016526-.002643-.120238.0047193-.224129.0114778-.997236.064874-1.735211.0749162-4.411472.0749162-.552285 0-1 .4477152-1 1 0 .5522847.447715.999997 1 .999997 2.724434 0 3.483668-.0103285 4.541305-.0791318.111749-.0072697.223314-.0151894.335391-.0238108 1.176454-.192119 1.923304-1.2057011 1.923304-2.2970544l-.0073-.1206085-1.291674-10.6314694.09883-5.8309754c.00936-.5522055-.430704-1.0074437-.982909-1.0168031-.552206-.0093594-1.007444.4307042-1.016803.9829096l-.1 5.9.007156.1375552 1.290505 10.6218506c-.015078.1462046-.104445.2615205-.162204.271147z" transform="matrix(.9945219 -.10452846 .10452846 .9945219 -4.271302 17.360988)"/><path d="m130.917567 97.1124855-8.258554-13.5986328 11.6 3.3z" transform="matrix(.9961947 -.08715574 .08715574 .9961947 -7.382486 11.53961)"/></g><path d="m167.988558 229.218809 1.405916-10.010418.186776-.987479 2.698739-18.989642 6.86851-1.610137 9.242232 30.271855c25.68563 6.952819 45.20688 12.372503 58.56375 16.259051 7.790816 2.266951 12.139343 4.053622 11.134983 5.121229-6.451223-1.065085-12.429344-1.406155-17.934363-1.02321-13.691706-4.018503-25.096218-7.101276-34.213535-9.24832-7.718049-1.817529-16.479573-3.590585-26.28457-5.31917-.617974-.120075-1.237999-.239764-1.860075-.359067-.217473-.026459-.435417-.052862-.653823-.079208-3.014275-.51972-6.123706-1.035384-9.328291-1.546994z" fill="#8c2a00" opacity=".2"/><path d="m108.302742 205.075296c2.834268 2.036487 4.094921 5.662793 2.791615 8.888588-1.547898 3.831184-6.089823 5.556436-10.063935 3.949671l-3.3811503-1.221821c-.7791178-.281544-1.1824811-1.14138-.9009373-1.920498.2815439-.779117 1.1413801-1.182481 1.9204979-.900937l3.4332807 1.241763c2.535775 1.024519 5.303589-.026836 6.210693-2.271997.907104-2.245162-.353562-4.924128-2.889337-5.948648-.768105-.310334-1.1392-1.184582-.828866-1.952686.138551-.342926.389504-.606719.69323-.766067-.033534-.618584.32126-1.218413.926422-1.467936 5.727772-2.361703 10.779891-6.002688 14.352868-12.20522 4.363725-7.463766 4.584921-15.778653 2.186719-23.951564-.378614-1.290293-.799195-2.479941-1.239866-3.56362-.281797-.692982-.431321-1.024084-.741158-1.68084-.353465-.749235-.03263-1.643151.716605-1.996616.749236-.353465 1.643152-.03263 1.996617.716605.331496.702668.499444 1.074565.806954 1.830781.477271 1.173684.931266 2.457846 1.339478 3.849005 2.609886 8.894317 2.36691 18.027894-2.470654 26.30206-3.760644 6.528379-8.963543 10.47055-14.859076 13.069977zm-31.7978861 33.151464c-.6936811.452877-1.6231505.257668-2.076028-.436014-.4528774-.693681-.2576675-1.62315.4360136-2.076028l17.9990935-11.750909c.6936812-.452877 1.6231505-.257667 2.076028.436014s.2576675 1.62315-.4360136 2.076028z" fill="#482d1f"/></g><g transform="translate(220 261.001395)"><path d="m167.5 881.31267c2.485281 0 4.5 2.014719 4.5 4.5s-2.014719 4.5-4.5 4.5h-163c-2.48528137 0-4.5-2.014719-4.5-4.5s2.01471863-4.5 4.5-4.5zm325.5 9h-102.5c-2.4 0-4.5-1.730769-4.5-3.807692v-1.384616c0-2.076923 2-3.807692 4.5-3.807692h102.5c2.4 0 4.5 1.730769 4.5 3.807692v1.384616c0 2.076923-2 3.807692-4.5 3.807692z" fill="#ff5645"/><path d="m168.53621 881.432553c-.332674-.078401-.679598-.119883-1.03621-.119883h-162.29176323c-.10753448-.547597-.16207323-1.237646-.14647677-2.131166.11220145-.698148.12616338-1.498027.34009484-2.294414 1.28358879-4.778326 2.83920803-7.95166 7.38913466-10.772683 4.5499266-2.821022 9.1946022-5.340345 14.0340117-7.556223 17.8491401-8.389768 23.9482111-8.283308 35.6843184-15.979657 4.8568618-3.215726 9.3225108-6.938356 13.4934413-10.966177 2.7806202-2.685214 8.4576706-7.047649 17.0311512-13.087306l86.9660879 1.417509zm325.009992-.089955c-.17976-.019744-.362099-.029928-.546202-.029928h-102.156122l8.083085-51.013249 71.6-9.7z" fill="#474961"/><path d="m284.691384 495.000323c-23.357312 72.212806-41.099176 127.135603-65.644668 203.006824l-15.040635 61.274772c-1.095676 6.087559-7.370908 10.179197-13.845353 9.08144l-76.099639-12.87369c-6.474446-1.097756-10.857147-6.985723-9.661865-13.073282 2.888599-14.470426 5.37877-27.24432 7.470514-38.022293 3.585847-18.16288 5.279164-26.944932 7.271301-38.12209 1.195282-6.786131 2.191351-12.474505 2.788992-16.266755 23.108791-124.246077 44.424658-219.651096 55.979053-271.54504 4.880736-22.254518 14.243781-64.268653 46.416796-106.881565 2.091744-2.694493 3.78506-4.79021 4.781129-6.087559 1.48842-1.523202 3.061948-2.851992 4.685458-4.010516-.036949-.357377-.07373-.715098-.110338-1.073173 8.1-5.8 14.917871-12.694726 47.317871-14.594726.8 0 1.7-.1 2.5-.1 31.4-1.1 60.5 15.4 74.7 41.7l24.3 44.9c3.5 6.4 6 13.2 7.4 20.2l83.28285 395.635694c1.088813 5.172415-2.035803 10.298883-7.132099 11.701432l-78.350751 21.562874c-6.4 1.7-13.1-1.8-14.9-7.7l-6.1-19.6c-18.6-52.5-36.8-107.4-54.3-164.4-9.815831-32.069111-19.036928-63.655002-27.708616-94.712347z" fill="#ffcb3d"/><path d="m368.342966 348.531361s-30.3 64.455643-15.1 67.548715c0 0 9.1-4.88905 15.7-20.45419l7.108285-29.065719z" fill="#482d1f" transform="matrix(.9945219 -.10452846 .10452846 .9945219 -37.97594 39.987331)"/><path d="m238.475615 258.312672c-.238115.173335-.476656.34587-.71632.517446 3.199089 31.284699 7.715674 59.875988 11.014734 91.160687.053113.186521.106226.373046.159339.559576.011786.364735.033828.698123.066632.998617.929664 8.515929 12.907484 56.581684 35.933459 144.197266-26.893851 83.130106-39.195498 118.901948-66.089349 202.032054l-15.040635 61.274772c-1.095676 6.087559-7.370908 10.179197-13.845353 9.08144l-76.099639-12.873689c-6.474446-1.097757-10.857147-6.985724-9.661865-13.073282 2.888599-14.470427 5.37877-27.244321 7.470514-38.022294 3.585847-18.16288 5.279164-26.944932 7.271301-38.122089 1.195282-6.786131 2.191351-12.474506 2.788992-16.266756 23.10879-124.246076 44.424658-219.651096 55.979053-271.54504 4.880736-22.254518 14.243781-64.268653 46.416795-106.881565 2.091744-2.694493 3.785061-4.79021 4.78113-6.087558 2.947567-3.016449 6.228902-5.270462 9.571215-6.949587z" fill="#8c2a00" opacity=".2"/><path d="m254.082837 100.805624c3.544432-1.021752 7.254327-1.7981225 11.114042-2.297583l5.657513-.6946552c7.014383-.9034637 13.567699-.5519121 19.607963.7933821l.000014.0000031c.715685-.0967045 1.455096-.1874716 2.216421-.2700393 10.3-1.0975419 24.5-.6984358 37.8 6.3856983 1.8.997765 5.6 2.993296 10.1 6.485475.1 0 .1.099776.1.099776.7.798213 7.9 8.880112 21.3 31.728939 3.3 5.587486 7.4 11.274749 10.5 18.059553.05128.179081.063115.364722.040562.545149.491489 1.355986.759438 2.818722.759438 4.343901 0 7.053448-5.730756 12.771397-12.8 12.771397-6.018069 0-11.066111-4.143892-12.434306-9.72791l-.593048.157152c.278791 1.048129.427354 2.149172.427354 3.284836 0 5.529829-3.522349 10.238808-8.450541 12.015161l3.843226 31.300567c.034502 1.101548.056844 2.104063.190601 3.193424.508731 4.963828.515257 12.401939-3.096068 18.273749-5.031139 8.25771-12.527233 20.235957-49.401311 25.165628-39.653207 5.270905-50.519217-4.452759-57.62146-11.421729-4.912413-4.724701-6.782434-10.928745-7.513994-16.066265-.133756-1.089361-.354608-2.067502-.587619-3.144676l-9.872973-44.997186c-1.137253 5.891439-6.33208 10.341705-12.568651 10.341705-7.069245 0-12.8-5.717949-12.8-12.771396 0-3.102735 1.108915-5.947048 2.952877-8.159906.815708-4.991496 1.631415-9.521956 2.447123-13.591379 5.7-27.338771 12.2-36.218883 12.2-36.218883 3.3-4.589721 6.5-7.583017 8-8.979888 11-10.37676 24.6-14.467598 34.8-16.064023 1.28596-.223145 2.517214-.399504 3.682837-.539977z" fill="#ff5645"/><path d="m93.0339121 818.525044 21.7224359-62.921114 76.165527 12.937569-11.621875 55.071171zm301.4694449-38.983919 63.291565-17.555604 12.732041 58.6139-71.6 9.7zm-143.576678-695.2867263c-.270856.0881747-.546391.1773201-.826679.2674332-8.6 2.7937431-8.1 2.59419-8.7 2.7937431-6.4 1.3968715-11.8.8979888-12.8.6984357-8.3-1.0975419-17.2-16.9620112-20.2-39.2121788-.3-1.7959776-.3-3.5919553-.4-5.3879329l.3-17.86c0-3.9910615 1.1-7.8823464 3.1-11.2747486.2-.3991062.4-.6984358.6-.9977654.7-.9977654 1.4-1.9955307 2.1-2.793743 2.7-3.19284917 5.9-5.48770951 9.2-7.08413409 7.8-3.19284916 16.6-3.49217877 21.5-2.79374301.7.09977653 2.9.39910614 6 .79821229 2.9.69843575 5.7 1.0975419 8.6 1.19731843 1.6.09977654 2.8 1.49664805 2.8 3.09307263-.6 15.43210425-.933333 23.94636875-1 25.54279325-.1 2.3946369 6-2.793743 8.7-2.8935195 4.8-.0997765 10.8 7.6827933 12.3 12.6716201 1.6 5.1883799-.3 10.4765363-3.5 13.769162-2.3 2.2948603-5 3.2926257-6.8 3.7915084-.8 0-1.7.7982123-2 1.7959776 0 0 0 .0997766-.1.1995531l6.2 11.8734078c.1.2993296.2.3991062.2.3991062s-.092502.0500293-.260868.1410252l3.560868-.7396844 2.9 25.3679027s-6.618004 1.8575813-14.181794 2.6441793c-5.042526.524398-10.114957.8202-15.217292.887405zm-60.912992 100.7011853c.311952 6.776799 5.917254 12.175492 12.786313 12.175492 6.236571 0 11.431398-4.450266 12.568651-10.341705l9.872973 44.997186c.233011 1.077174.453863 2.055315.587619 3.144676.506914 3.559898 1.560448 7.631878 3.794041 11.36893-14.897014 23.851745-36.937192 45.709146-64.16142 33.405062-34.393062-15.544061-72.5789365-43.872312-114.5576251-84.984753-2.0628637-1.123051-4.4860845-2.585579-6.9608206-4.446568-6.3853443-4.789273-9.2877735-9.478771-18.8077415-27.338771-9.4038707-17.760223-14.3781078-44.163996-12.8688446-50.749248.3482915-.997765 3.7323837-5.082491 7.6796875-1.290983 4.2955953 4.090838 18.075943 26.696991 24.229093 37.173528.0784117.132603.1626327.263369.2524602.392411-1.551383-6.619278-.9623169-12.827052 5.3709278-15.040747 0 0 6.9866533 12.518209 14.8485228 26.458932 1.4837562.879979 2.9222611 1.841053 4.2665153 2.910814 15.0938179 7.422206 93.2798232 45.888103 103.4821332 51.293153zm116.373872 6.30095c1.139383.331654 2.344491.509501 3.591231.509501 7.069244 0 12.8-5.717949 12.8-12.771397 0-.963368-.106904-1.901823-.309521-2.804199l.033789-.008954c1.448754 5.467567 6.440488 9.498181 12.375732 9.498181 7.069244 0 12.8-5.717949 12.8-12.771397 0-1.135663-.148563-2.236706-.427354-3.284836l.593048-.157151c1.368195 5.584017 6.416237 9.727909 12.434306 9.727909 2.078304 0 4.040921-.494211 5.776242-1.371275 29.434925 91.461327 46.076632 150.778653 49.92512 177.951978.220374.901553.384 1.872686.490877 2.913398 1.715358 16.703137-2.07034 42.714831-11.357095 78.035084-.078593.208913-29.459073 17.242259-51.741584 6.140543l14.099026-80.5151-61.083814-171.09228z" fill="#db9e75"/><path d="m253.000914 101.148805c-23.872649 7.314797-40.004175 25.83323-43.465557 45.620273-.95577 5.344697-.57259 10.927096.679561 16.201746l5.104736 23.26541c-.71655 6.376025-6.137992 11.332414-12.719654 11.332414-7.069245 0-12.8-5.717949-12.8-12.771397 0-3.143123 1.137972-6.064669 3.025258-8.337975.989417-6.521924 1.262541-7.864732 2.374742-13.41331 5.7-27.338771 12.2-36.218883 12.2-36.218883 3.3-4.58972 6.634546-7.826526 8.134546-9.223397 11-10.37676 23.833569-14.464733 34.033569-16.061158 1.147252-.199076 2.302707-.321121 3.432799-.393723z" fill="#444" opacity=".176986"/><path d="m190.013687 184.955584c.311952 6.776799 5.917254 12.175492 12.786313 12.175492 6.236571 0 11.431398-4.450266 12.568651-10.341705l9.872973 44.997186c.233011 1.077174.453863 2.055315.587619 3.144676.506914 3.559898 1.560448 7.631878 3.794041 11.36893-14.897014 23.851745-36.937192 45.709146-64.16142 33.405062-34.393062-15.544061-72.5789365-43.872312-114.5576251-84.984753-2.0628637-1.123051-4.4860845-2.585579-6.9608206-4.446568-6.3853443-4.789273-9.2877735-9.478771-18.8077415-27.338771-9.4038707-17.760223-14.3781078-44.163996-12.8688446-50.749248.3482915-.997765 3.7323837-5.082491 7.6796875-1.290983 4.2955953 4.090838 18.075943 26.696991 24.229093 37.173528.0784117.132603.1626327.263369.2524602.392411-1.551383-6.619278-.9623169-12.827052 5.3709278-15.040747 0 0 6.9866533 12.518209 14.8485228 26.458932 1.4837562.879979 2.9222611 1.841053 4.2665153 2.910814 15.0938179 7.422206 93.2798232 45.888103 103.4821332 51.293153z" fill="#8c2a00" opacity=".2"/><path d="m12.610366 90.1638833c2.8-1.4966481 5.8-1.3968715 6.7.2993296l42.8 76.7281561c.9 1.696201-.5 4.290391-3.3 5.886816-2.8 1.496648-5.8 1.396871-6.7-.29933l-42.79999996-76.7281561c-1-1.7959777.5-4.3901676 3.29999996-5.8868156z" fill="#474961"/><g fill="#482d1f"><path d="m268.591614 57.9324992.508386.0487741c1.3-.2993296 5.4-.8979889 8.6-4.1906146 3.2-3.1928491 5.1-8.4810055 3.4-13.6693854-1.5-4.9888268-6.3-9.0796648-11.1-8.9798883-2.7.0997765-4.9 1.3968715-5.2 1.5964246-3.5 2.2948603-5.1 5.4877095-5.1 5.4877095l-.993262 2.2397562c-.3492-.5499149-.685548-1.065467-1.006738-1.5413205-7-7.7825698-14-15.4653631-21.1-23.2479329-4 .9977653-10.6 1.8957542-18.1.0997765-2.4-.5986592-4.5-1.7959776-6.3-2.793743.7-.9977654 1.4-1.9955307 2.1-2.793743 2.7-3.19284918 5.9-5.48770952 9.2-7.0841341 7.8-3.19284916 16.6-3.49217877 21.5-2.79374301.7.09977653 2.9.39910614 6 .79821229.9.09977653 1.8.19955307 2.9.29932961 2.6.19955307 4.6.39910614 5.8.49888268 15.2.99776536 21.1-.69843576 28.7 3.49217877 1.4.79821229 4.6 2.69396648 7.3 6.18614526 4.199003 5.4787335 5.470994 11.680356 5.6569 16.8303184l.0431-.0678603s7.5 25.9418994-2.5 39.0126257c-2.985938 3.9028377-4.973303 7.022836-6.29221 9.4795268 2.282446 1.5457821 4.909469 3.4219837 7.69221 5.5867302 7.2 5.7870391 1.4 17.2613408-7.5 14.8667039l-10.820621-2.9366319-1.31897-11.7534412c-11.836178-6.8686977-11.832067-21.0192952-11.69519-23.9740029-.123918-.231229-.248476-.4634992-.373606-.6966534z"/><path d="m251.985474 93.5225088 10.614526-12.2098389-11.714166 2.9462891z"/><path d="m214.9 47.2054074c.2 1.6962011.6 4.6894972-.2 5.9865921-1.3 2.0953073-4.8-2.6939664-4.2-6.0863687.3-1.3968715 1-1.9955307 1.8-1.9955307 1.3-.0997765 2.4.7982123 2.6 2.0953073zm21.5-1.8957542c.2 1.6962011.6 4.6894972-.2 5.9865921-1.3 2.0953073-4.8-2.6939664-4.2-6.0863687.3-1.3968715 1-1.9955307 1.8-1.9955307 1.3-.0997765 2.4.7982123 2.6 2.0953073zm-16.595956 2.1052469c.049615-.5500516.535741-.9557351 1.085793-.9061196.550051.0496155.955735.5357417.906119 1.0857933l-.895956 9.8878168c0 .1263488.136903.297095.176526.3000274.677253.05198 1.093017.05198 2.800708.0194218.807409-.0153937 1.36395-.0223542 2.022766-.0223542.552285 0 1 .4477152 1 1 0 .5522847-.447715 1-1 1-.643653 0-1.188856.0068187-1.984642.0219908-1.781197.0339596-2.224693.0339596-2.915358-.0219908-1.176903 0-2.1-1.151293-2.09597-2.3869318zm7.595956 18.0496134c-1 .3991061-4.2 1.5964246-5.4.3991061-.5-.4988826-1.4-2.1950838-1.4-2.1950838s2.7 0 5.9-.4988826c1.8-.2993296 3.1-.6984358 3.5-.1995531.1.0997765 0 .3991061 0 .5986592-.2.9977654-1.9 1.6962011-2.6 1.8957542z"/><path d="m251.094564 39.9647043 6.164692-1.6097698c.760537-.1985972 1.522771.3216865 1.702496 1.1620862s-.291117 1.6826731-1.051655 1.8812704l-5.826411 1.5214354c.207224.9634618.316314 1.9632983.316314 2.9885859 0 7.8275218-6.358307 14.1716201-14.2 14.1716201-6.856609 0-12.579112-4.8503038-13.908648-11.3015716l-3.203685.2204501c-.313045 7.5509955-6.546023 13.5755349-14.187667 13.5755349-7.841693 0-14.2-6.3440983-14.2-14.1716201s6.358307-14.1716201 14.2-14.1716201c7.022886 0 12.855994 5.0884019 13.997577 11.7736915l3.102897-.2135147c.062999-7.7736283 6.396951-14.0545902 14.199526-14.0545902 5.715259 0 10.642554 3.3699393 12.894564 8.228012zm-33.053173 7.2881492c-.577062-5.6290963-5.344362-10.0217478-11.141391-10.0217478-6.186339 0-11.2 5.0024568-11.2 11.1716201s5.013661 11.1716201 11.2 11.1716201 11.2-5.0024568 11.2-11.1716201c0-.0891774-.001048-.1781111-.003131-.2667893-.05076-.1341742-.082974-.2779531-.09333-.4284494-.010787-.1567643.002918-.3095573.037852-.4546336zm20.158609 9.827079c6.186339 0 11.2-5.0024568 11.2-11.1716201s-5.013661-11.1716201-11.2-11.1716201-11.2 5.0024568-11.2 11.1716201 5.013661 11.1716201 11.2 11.1716201z"/><path d="m373.467939 409.763333c.101783-.82215.850779-1.406123 1.67293-1.30434s1.406124.850779 1.304341 1.67293c-.637948 5.152996-1.261594 9.141486-2.748499 18.009063-1.479892 8.825748-2.098959 12.784951-2.729923 17.881541-.101783.822151-.85078 1.406124-1.67293 1.304341-.822151-.101783-1.406124-.85078-1.304341-1.67293.637947-5.152997 1.261594-9.141486 2.748499-18.009063 1.479891-8.825749 2.098959-12.784951 2.729923-17.881542zm19.927084-5.796648c.152588-.814253.936367-1.350639 1.75062-1.198052.814254.152588 1.35064.936367 1.198052 1.75062-1.043108 5.566344-1.753834 9.898796-3.260757 19.561014-1.511554 9.69192-2.225716 14.045313-3.276251 19.651289-.152588.814253-.936367 1.35064-1.750621 1.198052-.814253-.152587-1.350639-.936367-1.198052-1.75062 1.043109-5.566344 1.753835-9.898796 3.260757-19.561014 1.511555-9.69192 2.225717-14.045312 3.276252-19.651289zm-97.793149-224.33368c-.021653-.023314-.042711-.04746-.063132-.072436-3.779879-4.623046-7.293298-10.268043-10.112929-16.711474-.332111-.758943.013904-1.643417.772846-1.975528.758943-.332111 1.643416.013904 1.975528.772846 2.706739 6.185452 6.075525 11.598066 9.687071 16.015229.245274.299987.355076.66641.336843 1.025148.24936.267846.401899.627038.401899 1.021858 0 .319689.033251.646719.102075 1.03585.030291.171264.067251.354308.116666.581112.028012.128565.13034.584266.133529.601798.945596 3.594756 3.698973 6.461221 7.221117 7.632645.786091.261445 1.2114 1.11064.949956 1.896731-.261445.78609-1.11064 1.211399-1.89673.949955-4.473622-1.487875-7.972309-5.131852-9.190739-9.777811.004718.021184-.115534-.51398-.148365-.664666-.057147-.262289-.101502-.481958-.139584-.697275-.097369-.550526-.147925-1.047746-.147925-1.558339 0-.025367.00063-.050586.001874-.075643z"/></g></g></g></g></svg>